# xmcd
# Track frame offsets:
# 150
# 15933
# 30160
# 56097
# 68830
# 77635
# 90820
# 96609
# 113263
# 124910
# 139329
# 150845
# 169273
# 182700
# 199757
# 232441
#
# Disc length: 3325 seconds
# Revision: 0
# Processed by: cddbd v1.5.1PL2 Copyright (c) Steve Scherf et al.
# Submitted via: VisiTrax 2.9.10.220 - For more info visit www.synapsa.com
#
DISCID=c60cfb10
DTITLE=Wylie and The Wild West - Live! At the Tracktor
DYEAR=2005
DGENRE=Cowboy
TTITLE0=Whoop It Up Trail
TTITLE1=Yodeling Cowhand
TTITLE2=Act Naturally
TTITLE3=A Good One
TTITLE4=The Little Red Hen
TTITLE5=When I'm Ridin' I'm Right
TTITLE6=The Two Things In Life
TTITLE7=Miles And Miles Of Texas
TTITLE8=Swinging On A Star
TTITLE9=Ol Montan
TTITLE10=Forty Miles Of Bad Road
TTITLE11=To Her
TTITLE12=Branded
TTITLE13=Buffalo Gals
TTITLE14=Yodeling Fool
TTITLE15=The Gather
EXTD=
EXTT0=
EXTT1=
EXTT2=
EXTT3=
EXTT4=
EXTT5=
EXTT6=
EXTT7=
EXTT8=
EXTT9=
EXTT10=
EXTT11=
EXTT12=
EXTT13=
EXTT14=
EXTT15=
PLAYORDER=
